<?xml version="1.0" encoding="UTF-8"?>
<svg width="140px" height="137px" viewBox="0 0 140 137" version="1.1" xmlns="http://www.w3.org/2000/svg" xmlns:xlink="http://www.w3.org/1999/xlink">
    <!-- Generator: sketchtool 59.1 (101010) - https://sketch.com -->
    <title>34BFD783-8015-43B2-897B-4ABD73135551</title>
    <desc>Created with sketchtool.</desc>
    <g id="Ecrans" stroke="none" stroke-width="1" fill="none" fill-rule="evenodd">
        <g id="Z4_Splash_Onboarding-3" transform="translate(-137.000000, -260.000000)">
            <g id="Group-2" transform="translate(140.227241, 263.000000)">
                <polygon id="Path-2" fill="#4EC7DB" points="34.1964277 6 97.7727593 6 131.596752 44 65.7727593 127.50545 -1.42108547e-14 44"></polygon>
                <polygon id="Path-2" fill="#FFFFFF" points="65.5711353 6 93.798376 44 64.798376 127.50545 36.7727593 44"></polygon>
                <polyline id="Path-4" stroke="#0A2358" stroke-width="5" stroke-linecap="round" stroke-linejoin="round" points="64.798376 3 36.7727593 43.5642335 64.7727593 130.564234"></polyline>
                <polyline id="Path-4" stroke="#0A2358" stroke-width="5" stroke-linecap="round" stroke-linejoin="round" transform="translate(79.785568, 66.782117) scale(-1, 1) translate(-79.785568, -66.782117) " points="93.798376 3 65.7727593 43.5642335 93.7727593 130.564234"></polyline>
                <line x1="-2.84217094e-14" y1="44" x2="28.9039522" y2="44" id="Path-5" stroke="#0A2358" stroke-width="5" stroke-linecap="round"></line>
                <line x1="104.772759" y1="44" x2="133.676712" y2="44" id="Path-5" stroke="#0A2358" stroke-width="5" stroke-linecap="round"></line>
                <line x1="51.7727593" y1="44" x2="80.6767115" y2="44" id="Path-5" stroke="#0A2358" stroke-width="5" stroke-linecap="round"></line>
                <g id="Group" transform="translate(25.772759, 0.000000)" stroke="#FFFFFF" stroke-linecap="round" stroke-linejoin="round" stroke-width="5">
                    <line x1="6.27874575" y1="0" x2="6.27874575" y2="12.5574915" id="Path-6"></line>
                    <line x1="12.5574915" y1="6.27874575" x2="0" y2="6.27874575" id="Path-6"></line>
                </g>
                <g id="Group" transform="translate(98.772759, 75.000000)" stroke="#FFFFFF" stroke-linecap="round" stroke-linejoin="round" stroke-width="5">
                    <line x1="6.27874575" y1="0" x2="6.27874575" y2="12.5574915" id="Path-6"></line>
                    <line x1="12.5574915" y1="6.27874575" x2="0" y2="6.27874575" id="Path-6"></line>
                </g>
            </g>
        </g>
    </g>
</svg>