<?xml version="1.0" encoding="UTF-8"?>
<svg width="124px" height="124px" viewBox="0 0 124 124" version="1.1" xmlns="http://www.w3.org/2000/svg" xmlns:xlink="http://www.w3.org/1999/xlink">
    <!-- Generator: sketchtool 59.1 (101010) - https://sketch.com -->
    <title>B8D40FCE-1DC9-48AE-B43B-8BE3E6AA9895</title>
    <desc>Created with sketchtool.</desc>
    <defs>
        <rect id="path-1" x="0" y="0" width="104" height="104" rx="24"></rect>
        <filter x="-15.4%" y="-13.5%" width="130.8%" height="130.8%" filterUnits="objectBoundingBox" id="filter-2">
            <feOffset dx="0" dy="2" in="SourceAlpha" result="shadowOffsetOuter1"></feOffset>
            <feGaussianBlur stdDeviation="5" in="shadowOffsetOuter1" result="shadowBlurOuter1"></feGaussianBlur>
            <feColorMatrix values="0 0 0 0 0   0 0 0 0 0   0 0 0 0 0  0 0 0 0.2 0" type="matrix" in="shadowBlurOuter1"></feColorMatrix>
        </filter>
    </defs>
    <g id="Ecrans" stroke="none" stroke-width="1" fill="none" fill-rule="evenodd">
        <g id="Z3_Splash_Onboarding-2" transform="translate(-141.000000, -264.000000)">
            <g id="Asset/Click" transform="translate(151.000000, 272.000000)">
                <g id="Group-2">
                    <g id="Rectangle-Copy-22">
                        <use fill="black" fill-opacity="1" filter="url(#filter-2)" xlink:href="#path-1"></use>
                        <use fill="#FF4338" fill-rule="evenodd" xlink:href="#path-1"></use>
                    </g>
                    <path d="M55.2068958,73.6367115 L55.2068958,82.0626374 L46.7809698,82.0626374 L46.7809698,73.6367115 L55.2068958,73.6367115 Z M64.7281921,30.8751374 C69.6994884,37.742267 68.2249513,45.1149522 63.9277291,49.4121744 L60.1360624,53.2881003 C58.029581,55.4367115 56.5129143,57.3746744 55.754581,60.4080078 C55.4175439,61.7561559 55.2068958,63.2728226 55.2068958,65.2107855 L46.7809698,65.2107855 L46.7809698,63.1043041 C46.7809698,61.1663411 47.1180069,59.3126374 47.7078217,57.5853226 C48.5504143,55.1418041 49.9406921,52.9510633 51.7101365,51.1816189 L56.9342106,45.8732855 C58.8721735,44.0195818 59.7990254,41.2390263 59.2513402,38.2899522 C58.703655,35.2566189 56.3443958,32.6867115 53.3953217,31.8441189 C48.7189328,30.5381003 44.379581,33.192267 42.9893032,37.1945818 C42.4837476,38.7533781 41.1777291,39.9330078 39.5346735,39.9330078 L38.2707847,39.9330078 C35.8272661,39.9330078 34.142081,37.5737485 34.816155,35.2144892 C36.6277291,29.0214337 41.8939328,24.3029152 48.4240254,23.2918041 C54.8277291,22.2806929 60.9365254,25.6089337 64.7281921,30.8751374 Z" id="Combined-Shape" fill="#FFFFFF"></path>
                </g>
            </g>
        </g>
    </g>
</svg>